<svg id="Capa_1" data-name="Capa 1" xmlns="http://www.w3.org/2000/svg" viewBox="0 0 25 25"><title>ic_</title><path d="M12.5,25A12.5,12.5,0,1,1,25,12.5,12.52,12.52,0,0,1,12.5,25Zm0-24A11.55,11.55,0,1,0,24.05,12.5,11.56,11.56,0,0,0,12.5,1Z" style="fill:#fff"/><path d="M12.5,7.09c1.76,0,2,0,2.66,0a3.64,3.64,0,0,1,1.23.23,2.14,2.14,0,0,1,1.25,1.25,3.64,3.64,0,0,1,.23,1.23c0,.69,0,.9,0,2.66s0,2,0,2.66a3.64,3.64,0,0,1-.23,1.23,2.14,2.14,0,0,1-1.25,1.25,3.64,3.64,0,0,1-1.23.23c-.69,0-.9,0-2.66,0s-2,0-2.66,0a3.64,3.64,0,0,1-1.23-.23,2.14,2.14,0,0,1-1.25-1.25,3.64,3.64,0,0,1-.23-1.23c0-.69,0-.9,0-2.66s0-2,0-2.66a3.64,3.64,0,0,1,.23-1.23A2.14,2.14,0,0,1,8.61,7.36a3.64,3.64,0,0,1,1.23-.23c.69,0,.9,0,2.66,0m0-1.18c-1.79,0-2,0-2.72,0a4.89,4.89,0,0,0-1.6.3A3.36,3.36,0,0,0,6.25,8.18,4.89,4.89,0,0,0,6,9.78c0,.7,0,.93,0,2.72s0,2,0,2.72a4.89,4.89,0,0,0,.3,1.6,3.36,3.36,0,0,0,1.93,1.93,4.89,4.89,0,0,0,1.6.3c.7,0,.93,0,2.72,0s2,0,2.72,0a4.89,4.89,0,0,0,1.6-.3,3.36,3.36,0,0,0,1.93-1.93,4.89,4.89,0,0,0,.3-1.6c0-.7,0-.93,0-2.72s0-2,0-2.72a4.89,4.89,0,0,0-.3-1.6,3.36,3.36,0,0,0-1.93-1.93,4.89,4.89,0,0,0-1.6-.3c-.7,0-.93,0-2.72,0" style="fill:#fff"/><path d="M12.5,9.11a3.39,3.39,0,1,0,3.39,3.39A3.39,3.39,0,0,0,12.5,9.11m0,5.59a2.2,2.2,0,1,1,2.2-2.2,2.21,2.21,0,0,1-2.2,2.2" style="fill:#fff"/><path d="M16.81,9A.79.79,0,1,1,16,8.19a.79.79,0,0,1,.79.79" style="fill:#fff"/></svg>