<svg id="Capa_1" data-name="Capa 1" xmlns="http://www.w3.org/2000/svg" viewBox="0 0 25 25"><title>ic_</title><path d="M12.5,25A12.5,12.5,0,1,1,25,12.5,12.52,12.52,0,0,1,12.5,25Zm0-24A11.55,11.55,0,1,0,24.05,12.5,11.56,11.56,0,0,0,12.5,1Z" style="fill:#fff"/><path d="M6.09,16.53A7.48,7.48,0,0,0,17.6,9.89a5.64,5.64,0,0,0,1.31-1.36,5.44,5.44,0,0,1-1.51.41,2.62,2.62,0,0,0,1.15-1.46,5,5,0,0,1-1.67.64,2.63,2.63,0,0,0-4.48,2.4A7.49,7.49,0,0,1,7,7.77a2.64,2.64,0,0,0,.82,3.51A2.64,2.64,0,0,1,6.61,11a2.64,2.64,0,0,0,2.11,2.61,2.64,2.64,0,0,1-1.19,0A2.62,2.62,0,0,0,10,15.44,5.32,5.32,0,0,1,6.09,16.53Z" style="fill:#fff"/></svg>