<svg id="Capa_1" data-name="Capa 1" xmlns="http://www.w3.org/2000/svg" viewBox="0 0 25 25"><title>ic_</title><path d="M12.5,25A12.5,12.5,0,1,1,25,12.5,12.52,12.52,0,0,1,12.5,25Zm0-24A11.55,11.55,0,1,0,24.05,12.5,11.56,11.56,0,0,0,12.5,1Z" style="fill:#fff"/><path d="M19.09,12.17a6.48,6.48,0,0,0-12.94-.12c0,.09,0,.19,0,.28a6.35,6.35,0,0,0,.93,3.32L5.9,19.1,9.49,18a6.49,6.49,0,0,0,9.61-5.63A.86.86,0,0,0,19.09,12.17Zm-6.47,5.56a5.42,5.42,0,0,1-3-.89l-2.09.67.68-2a5.37,5.37,0,0,1-1-3.17,4.41,4.41,0,0,1,0-.52,5.45,5.45,0,0,1,10.85.1c0,.14,0,.28,0,.42A5.43,5.43,0,0,1,12.62,17.73Z" style="fill:#fff;fill-rule:evenodd"/><path d="M15.59,13.63c-.16-.08-.94-.46-1.09-.51s-.25-.08-.36.07a7.06,7.06,0,0,1-.5.62c-.09.11-.18.12-.34,0A4.3,4.3,0,0,1,12,13.07,4.7,4.7,0,0,1,11.14,12c-.09-.16,0-.24.07-.32s.15-.19.24-.28l.05-.07a1.14,1.14,0,0,0,.1-.19.28.28,0,0,0,0-.28c0-.08-.36-.85-.49-1.17s-.26-.26-.36-.26h-.3a.54.54,0,0,0-.42.19,1.75,1.75,0,0,0-.56,1.32,1.89,1.89,0,0,0,.08.53,3.59,3.59,0,0,0,.57,1.1,6.61,6.61,0,0,0,2.71,2.38c1.62.62,1.62.41,1.91.39a1.6,1.6,0,0,0,1.07-.75,1.32,1.32,0,0,0,.09-.75C15.85,13.75,15.75,13.71,15.59,13.63Z" style="fill:#fff;fill-rule:evenodd"/></svg>