<svg id="Capa_1" data-name="Capa 1" xmlns="http://www.w3.org/2000/svg" viewBox="0 0 25 25"><title>ic_</title><path d="M12.5,25A12.5,12.5,0,1,1,25,12.5,12.52,12.52,0,0,1,12.5,25Zm0-24A11.55,11.55,0,1,0,24.05,12.5,11.56,11.56,0,0,0,12.5,1Z" style="fill:#fff"/><path d="M19.71,8.86a1.89,1.89,0,0,0-1.33-1.34A44.26,44.26,0,0,0,12.5,7.2a44.26,44.26,0,0,0-5.88.32A1.89,1.89,0,0,0,5.29,8.86,20.06,20.06,0,0,0,5,12.5a20.06,20.06,0,0,0,.31,3.64,1.89,1.89,0,0,0,1.33,1.34,44.26,44.26,0,0,0,5.88.32,44.26,44.26,0,0,0,5.88-.32,1.89,1.89,0,0,0,1.33-1.34A20.06,20.06,0,0,0,20,12.5,20.06,20.06,0,0,0,19.71,8.86ZM11,14.74V10.26l3.93,2.24Z" style="fill:#fff"/></svg>